<svg version="1.1" id="Layer_1" xmlns:x="ns_extend;" xmlns:i="ns_ai;" xmlns:graph="ns_graphs;" xmlns="http://www.w3.org/2000/svg" xmlns:xlink="http://www.w3.org/1999/xlink" x="0px" y="0px" viewBox="0 0 79.2 78.2" style="enable-background:new 0 0 79.2 78.2;" xml:space="preserve">
 <style type="text/css">
  .st0{fill:#00D2B9;}
 </style>
 <metadata>
  <sfw xmlns="ns_sfw;">
   <slices>
   </slices>
   <sliceSourceBounds bottomLeftOrigin="true" height="78.2" width="79.2" x="0" y="0">
   </sliceSourceBounds>
  </sfw>
 </metadata>
 <g>
  <path class="st0" d="M65.9,78.2H18.6c-2.5,0-4.6-1.5-5.4-3.8c-0.9-2.2-0.1-4.8,1.8-6.3l10.6-8.5H5.8c-2.5,0-4.6-1.5-5.4-3.8
		s-0.2-4.7,1.7-6.3l20.4-16.8c1.7-1.4,4.2-1.1,5.6,0.5c1.4,1.7,1.1,4.1-0.5,5.5l-15.8,13h23.5l31.9-25.7h-54c-3.5,0-6.8-1.4-9.4-3.8
		c-2.5-2.4-3.8-5.7-3.8-9.2S1.4,6.4,4,3.8C6.5,1.4,9.8,0,13.3,0h46c2.5,0,4.6,1.5,5.4,3.8s0.1,4.7-1.8,6.3l-10.3,8.4h20.7
		c2.5,0,4.6,1.5,5.4,3.8c0.8,2.2,0.1,4.8-1.8,6.3L47.8,51.8h18.2c3.5,0,6.8,1.4,9.3,3.8c2.5,2.4,3.9,5.7,3.9,9.3v0.2
		c0,3.5-1.3,6.8-3.9,9.3C72.8,76.9,69.5,78.2,65.9,78.2L65.9,78.2z M24.8,70.4h41.2c1.4,0,2.8-0.6,3.8-1.5c1-1,1.5-2.3,1.5-3.8V65
		c0-1.4-0.6-2.7-1.5-3.8c-1.1-1-2.4-1.5-3.8-1.5H38.1L24.8,70.4L24.8,70.4z M13.3,7.8c-1.4,0-2.8,0.6-3.8,1.5C8.4,10.3,8,11.6,8,13
		s0.6,2.7,1.5,3.8c1.1,1,2.4,1.5,3.8,1.5h26.9l13-10.5H13.3z">
  </path>
 </g>
</svg>